<!-- icon666.com - MILLIONS vector ICONS FREE --><svg viewBox="0 0 64 64" xmlns="http://www.w3.org/2000/svg"><g fill-rule="evenodd"><path d="m48 64h-32a16.0007 16.0007 0 0 1 -16-16v-32a16.0007 16.0007 0 0 1 16-16h32a16 16 0 0 1 16 16v32a16 16 0 0 1 -16 16" fill="#4682c3"></path><path d="m30 18h18a9.0006 9.0006 0 0 0 .92-17.954c-.306-.017-.609-.046-.92-.046h-32a16.0007 16.0007 0 0 0 -16 16v32a30.0007 30.0007 0 0 1 30-30" fill="#5f9bdc"></path><path d="m48 32a16 16 0 1 0 16 16v-32a16 16 0 0 1 -16 16" fill="#2d69aa"></path><path d="m53.118 21.804c.324-1.018 0-1.757-1.435-1.757h-4.765a2.107 2.107 0 0 0 -2.081 1.341 40.5784 40.5784 0 0 1 -5.877 9.761c-1.11 1.11-1.618 1.481-2.22 1.481-.324 0-.74-.371-.74-1.389v-9.483c0-1.203-.371-1.758-1.388-1.758h-7.306a1.1483 1.1483 0 0 0 -1.203 1.11c0 1.157 1.712 1.434 1.897 4.673v7.031c0 1.527-.278 1.805-.879 1.805-1.62 0-6.203-5.968-8.563-12.769-.463-1.342-.924-1.85-2.128-1.85h-4.811c-1.388 0-1.619.647-1.619 1.341 0 3.056 8.638 24.612 22.577 24.612 3.052 0 3.423-.693 3.423-1.85v-4.302c0-1.389.278-1.62 1.249-1.62 2.481 0 6.971 5.542 8.131 6.703a2.9471 2.9471 0 0 0 2.232 1.116h4.765c1.388 0 1.871-.843 1.502-2.184-.858-2.76-6.827-8.438-7.145-8.873-.695-.926-.51-1.295 0-2.129-.047 0 5.782-8.234 6.384-11.01z" fill="#fff"></path></g></svg>