<!-- icon666.com - MILLIONS vector ICONS FREE --><svg version="1.1" id="Capa_1" xmlns="http://www.w3.org/2000/svg" xmlns:xlink="http://www.w3.org/1999/xlink" x="0px" y="0px" viewBox="0 0 55.019 55.019" style="enable-background:new 0 0 55.019 55.019;" xml:space="preserve"><g><path style="fill:#71C285;" d="M35.425,21.689c-0.182-0.521-0.755-0.796-1.273-0.615c-3.562,1.243-4.27,6.931-4.394,15.076 c-1.589-2.465-3.838-4.132-7.025-4.132c-0.553,0-1,0.448-1,1s0.447,1,1,1c8.118,0,8.749,15.308,8.749,20c0,0.552,0.447,1,1,1 c0.553,0,1-0.448,1-1c0-3.359-0.273-8.979-1.81-13.698c0.031-0.097,0.061-0.195,0.061-0.302c0-6.745,0-15.982,3.078-17.056 C35.331,22.781,35.606,22.21,35.425,21.689z"></path><path style="fill:#4C8056;" d="M47.647,28.642c-7.139-0.012-12.926,5.962-12.938,13.355l0.022-0.023 c7.139,0.012,12.926-5.962,12.938-13.355L47.647,28.642z"></path><ellipse transform="matrix(0.8152 -0.5791 0.5791 0.8152 -1.5488 28.572)" style="fill:#89769B;" cx="44.003" cy="16.713" rx="11" ry="6.5"></ellipse><path style="fill:#B49ACA;" d="M40.239,11.414c0.335-0.238,0.674-0.459,1.014-0.67C41.031,5.3,38.443,1,35.275,1 c-3.314,0-6,4.701-6,10.5c0,5.315,2.259,9.696,5.186,10.392C33.577,18.883,35.902,14.495,40.239,11.414z"></path><g><path style="fill:#5D516B;" d="M44.968,0.233c-1.945-0.743-4.32,0.338-6.33,2.586c1.474,1.757,2.48,4.627,2.615,7.926 c2.221-1.37,4.528-2.142,6.55-2.288C48.379,4.498,47.342,1.139,44.968,0.233z"></path></g><ellipse transform="matrix(-0.9048 -0.4258 0.4258 -0.9048 9.1493 63.0444)" style="fill:#B49ACA;" cx="11.621" cy="30.5" rx="11" ry="6.5"></ellipse><path style="fill:#89769B;" d="M14.388,24.618c-0.372-0.175-0.745-0.333-1.117-0.48c-0.745-5.399,1.042-10.088,4.16-10.649 c3.261-0.586,6.737,3.565,7.763,9.273c0.94,5.231-0.508,9.942-3.266,11.146C22.266,30.791,19.201,26.883,14.388,24.618z"></path><g><path style="fill:#5D516B;" d="M7.755,14.45c1.783-1.075,4.311-0.432,6.687,1.425c-1.14,1.99-1.622,4.993-1.171,8.263 c-2.428-0.955-4.836-1.307-6.852-1.093C5.153,19.251,5.579,15.762,7.755,14.45z"></path></g><g><polygon style="fill:#4FBA6F;" points="34.711,41.961 34.705,41.963 34.71,41.966 "></polygon><path style="fill:#4FBA6F;" d="M49.874,48.126c-1.75-4.355-5.975-6.993-10.518-7.041c-1.438,0.568-2.993,0.891-4.624,0.889 c2.343,5.833,9.128,8.59,15.169,6.163L49.874,48.126z"></path></g></g></svg>